<svg width="90" height="90" viewBox="0 0 90 90" fill="none" xmlns="http://www.w3.org/2000/svg">
<path d="M67.9402 31.8913C68.2953 32.2716 68.4888 32.775 68.4796 33.2952C68.4705 33.8154 68.2595 34.3118 67.8913 34.6793L39.1793 62.0706C38.8025 62.409 38.3162 62.6001 37.8098 62.6087C37.3166 62.6068 36.8432 62.414 36.4891 62.0706L22.1087 48.375C21.9224 48.1951 21.7734 47.9804 21.6701 47.7429C21.5668 47.5055 21.5114 47.25 21.5068 46.9911C21.5023 46.7322 21.5488 46.475 21.6436 46.234C21.7385 45.9931 21.8799 45.7732 22.0598 45.587C22.2396 45.4007 22.4544 45.2517 22.6919 45.1484C22.9293 45.0451 23.1848 44.9896 23.4437 44.9851C23.7026 44.9805 23.9598 45.027 24.2007 45.1219C24.4417 45.2168 24.6616 45.3582 24.8478 45.538L37.8098 57.962L65.1522 31.8424C65.5324 31.4873 66.0359 31.2939 66.5561 31.303C67.0763 31.3121 67.5726 31.5231 67.9402 31.8913ZM90 5.86957V84.1304C90 85.6871 89.3816 87.1801 88.2808 88.2808C87.1801 89.3816 85.6871 90 84.1304 90H5.86957C4.31286 90 2.81991 89.3816 1.71916 88.2808C0.618398 87.1801 0 85.6871 0 84.1304V5.86957C0 4.31286 0.618398 2.81991 1.71916 1.71916C2.81991 0.618398 4.31286 0 5.86957 0H84.1304C85.6871 0 87.1801 0.618398 88.2808 1.71916C89.3816 2.81991 90 4.31286 90 5.86957ZM86.087 5.86957C86.087 5.35066 85.8808 4.85301 85.5139 4.4861C85.147 4.11918 84.6493 3.91304 84.1304 3.91304H5.86957C5.35066 3.91304 4.85301 4.11918 4.4861 4.4861C4.11918 4.85301 3.91304 5.35066 3.91304 5.86957V84.1304C3.91304 84.6493 4.11918 85.147 4.4861 85.5139C4.85301 85.8808 5.35066 86.087 5.86957 86.087H84.1304C84.6493 86.087 85.147 85.8808 85.5139 85.5139C85.8808 85.147 86.087 84.6493 86.087 84.1304V5.86957Z" fill="black"/>
</svg>
