<svg width="90" height="90" viewBox="0 0 90 90" fill="none" xmlns="http://www.w3.org/2000/svg">
<path d="M45 0C36.0999 0 27.3996 2.6392 19.9994 7.58387C12.5991 12.5285 6.83138 19.5566 3.42544 27.7792C0.0194971 36.0019 -0.871652 45.0499 0.864683 53.7791C2.60102 62.5082 6.88685 70.5264 13.1802 76.8198C19.4736 83.1132 27.4918 87.399 36.2209 89.1353C44.9501 90.8717 53.9981 89.9805 62.2208 86.5746C70.4434 83.1686 77.4715 77.4009 82.4161 70.0006C87.3608 62.6004 90 53.9001 90 45C89.9762 33.0726 85.2275 21.6404 76.7935 13.2065C68.3596 4.77248 56.9274 0.0237836 45 0ZM45 86.4C36.8119 86.4 28.8076 83.9719 21.9994 79.4228C15.1912 74.8737 9.88487 68.4079 6.75141 60.8431C3.61794 53.2782 2.79808 44.9541 4.39551 36.9233C5.99294 28.8924 9.9359 21.5157 15.7258 15.7258C21.5157 9.93588 28.8925 5.99292 36.9233 4.39549C44.9541 2.79806 53.2782 3.61792 60.8431 6.75139C68.408 9.88485 74.8738 15.1912 79.4228 21.9994C83.9719 28.8076 86.4 36.8118 86.4 45C86.3881 55.9763 82.0225 66.4996 74.2611 74.261C66.4996 82.0225 55.9763 86.3881 45 86.4ZM72 45C72 45.4774 71.8104 45.9352 71.4728 46.2728C71.1352 46.6103 70.6774 46.8 70.2 46.8H45C44.5226 46.8 44.0648 46.6103 43.7272 46.2728C43.3897 45.9352 43.2 45.4774 43.2 45V19.8C43.2 19.3226 43.3897 18.8648 43.7272 18.5272C44.0648 18.1896 44.5226 18 45 18C45.4774 18 45.9352 18.1896 46.2728 18.5272C46.6104 18.8648 46.8 19.3226 46.8 19.8V43.2H70.2C70.6774 43.2 71.1352 43.3896 71.4728 43.7272C71.8104 44.0648 72 44.5226 72 45Z" fill="black"/>
</svg>
