<svg width="32" height="25" viewBox="0 0 32 25" fill="none" xmlns="http://www.w3.org/2000/svg">
<path d="M31.36 0H0.64C0.470261 0 0.307475 0.0693138 0.187452 0.192693C0.0674285 0.316072 0 0.48341 0 0.657895V23.0263C0 23.5498 0.202285 24.0518 0.562355 24.4219C0.922425 24.7921 1.41078 25 1.92 25H30.08C30.5892 25 31.0776 24.7921 31.4376 24.4219C31.7977 24.0518 32 23.5498 32 23.0263V0.657895C32 0.48341 31.9326 0.316072 31.8125 0.192693C31.6925 0.0693138 31.5297 0 31.36 0ZM16 14.2434L2.288 1.31579H29.712L16 14.2434ZM12.256 12.5L1.28 22.8454V2.1546L12.256 12.5ZM13.2 13.3882L15.568 15.6086C15.6842 15.7231 15.839 15.7871 16 15.7871C16.161 15.7871 16.3158 15.7231 16.432 15.6086L18.8 13.3882L29.712 23.6842H2.288L13.2 13.3882ZM19.744 12.5L30.72 2.1546V22.8454L19.744 12.5Z" fill="black"/>
</svg>
