<svg width="90" height="90" viewBox="0 0 90 90" fill="none" xmlns="http://www.w3.org/2000/svg">
<path d="M79.8261 3.86813C79.9852 3.7088 80.1036 3.51368 80.1713 3.29921C80.239 3.08474 80.2541 2.85719 80.2152 2.63572C80.1763 2.41425 80.0845 2.20534 79.9478 2.02658C79.811 1.84782 79.6331 1.70444 79.4292 1.60852C76.2832 0.127279 72.7544 -0.346581 69.3275 0.252014C65.9006 0.850609 62.7436 2.4923 60.2901 4.95162C55.5095 9.74873 53.84 17.2826 56.0698 23.5815L23.5829 55.9711C21.7781 55.3368 19.877 55.0177 17.9633 55.028C13.1378 55.028 8.45856 56.9423 5.12794 60.2826C2.68309 62.7097 1.03063 65.8164 0.387084 69.1959C-0.256466 72.5753 0.138913 76.0697 1.52141 79.2212C1.61203 79.4322 1.75336 79.6177 1.93292 79.7613C2.11248 79.9049 2.32474 80.0023 2.55097 80.0447C2.7772 80.0872 3.01043 80.0734 3.23006 80.0047C3.4497 79.936 3.64899 79.8144 3.81033 79.6507L13.6389 69.801C14.2864 69.1498 15.3309 69.0628 15.8715 69.6102L20.1143 74.0368C20.7309 74.6571 20.7027 75.6143 20.0524 76.2683L10.2604 86.0927C10.1013 86.2518 9.98285 86.4466 9.91512 86.6609C9.8474 86.8752 9.83236 87.1026 9.87129 87.3238C9.91021 87.5451 10.002 87.7538 10.1388 87.9323C10.2756 88.1108 10.4535 88.2539 10.6574 88.3495C12.9358 89.4332 15.4277 89.997 17.9521 90C22.3779 90 26.5813 88.226 29.7965 85.0036C34.577 80.2093 36.2466 72.6754 34.0139 66.3765L66.5008 33.9841C68.3067 34.6182 70.2086 34.9373 72.1232 34.9272C76.9488 34.9272 81.628 33.0129 84.9586 29.6726C87.4034 27.2455 89.0559 24.1388 89.6995 20.7594C90.343 17.3799 89.9476 13.8855 88.5651 10.734C88.4745 10.523 88.3332 10.3375 88.1536 10.1939C87.9741 10.0503 87.7618 9.95295 87.5356 9.9105C87.3093 9.86806 87.0761 9.8818 86.8565 9.95051C86.6368 10.0192 86.4375 10.1408 86.2762 10.3045L76.4476 20.1542C76.144 20.4468 75.7366 20.6081 75.3143 20.6028C74.8919 20.5976 74.4888 20.4262 74.1925 20.1261L69.9722 15.9184C69.8217 15.7743 69.7018 15.6014 69.6199 15.41C69.5379 15.2187 69.4955 15.0128 69.4953 14.8047C69.495 14.5966 69.5369 14.3906 69.6183 14.199C69.6998 14.0074 69.8192 13.8342 69.9694 13.6897L79.8261 3.86813ZM67.9789 17.903L72.1992 22.1106C73.8856 23.8004 76.7742 23.8088 78.4438 22.1359L86.6929 13.8722C87.3463 16.3002 87.3458 18.857 86.6913 21.2848C86.0368 23.7125 84.7516 25.9251 82.9653 27.6993C80.1583 30.5147 76.2112 32.1259 72.126 32.1259C70.2031 32.1259 68.3815 31.7666 66.712 31.0592C66.4539 30.9497 66.1689 30.9195 65.8935 30.9725C65.6182 31.0255 65.3649 31.1593 65.1663 31.3568L31.3815 65.0404C31.1838 65.2374 31.0495 65.4888 30.9959 65.7623C30.9422 66.0358 30.9716 66.3191 31.0803 66.5758C33.3411 71.9371 31.9643 78.8563 27.806 83.0275C26.0142 84.8395 23.7583 86.1268 21.2838 86.7494C18.8092 87.372 16.2108 87.306 13.7712 86.5587L22.0513 78.25C23.7997 76.4957 23.8278 73.7757 22.133 72.0803L17.893 67.6537C16.2572 66.0116 13.3489 66.1127 11.6484 67.8277L3.39929 76.0915C2.74586 73.6635 2.74641 71.1066 3.40089 68.6789C4.05536 66.2512 5.3406 64.0386 7.12687 62.2643C9.93383 59.4489 13.881 57.8377 17.9662 57.8377C19.8891 57.8377 21.7106 58.197 23.3802 58.9044C23.6381 59.0147 23.9233 59.0453 24.1988 58.9923C24.4744 58.9393 24.7277 58.805 24.9258 58.6068L58.7106 24.9232C58.9084 24.7262 59.0426 24.4749 59.0963 24.2013C59.15 23.9278 59.1206 23.6446 59.0119 23.3878C56.7511 18.0265 58.1278 11.1045 62.2862 6.93334C64.0773 5.12312 66.3318 3.83687 68.8046 3.21433C71.2774 2.59178 73.8741 2.65675 76.3125 3.40217L67.9789 11.7136C67.5668 12.1175 67.2395 12.5991 67.0161 13.1305C66.7927 13.6618 66.6776 14.2322 66.6776 14.8083C66.6776 15.3844 66.7927 15.9548 67.0161 16.4861C67.2395 17.0174 67.5668 17.4991 67.9789 17.903Z" fill="black"/>
<path d="M82.2361 86.0926C81.923 86.3929 81.5052 86.5601 81.0708 86.559C80.6364 86.558 80.2194 86.3887 79.9078 86.087L51.6693 58.0173C51.4002 57.7774 51.0491 57.6495 50.6883 57.6599C50.3274 57.6703 49.9843 57.8183 49.7296 58.0733C49.4749 58.3283 49.3279 58.671 49.319 59.0309C49.3101 59.3907 49.4399 59.7402 49.6816 60.0075L77.9173 88.0715C78.7619 88.9164 79.8824 89.3824 81.0762 89.3824C82.2699 89.3824 83.3904 88.9164 84.2519 88.0519L88.2751 83.8611C88.6865 83.4564 89.013 82.9742 89.2358 82.4426C89.4585 81.911 89.5731 81.3406 89.5729 80.7644C89.5726 80.1883 89.4575 79.6179 89.2342 79.0865C89.011 78.5551 88.684 78.0732 88.2723 77.6689L60.1183 49.5992C59.8528 49.3436 59.4973 49.2021 59.1282 49.2053C58.7591 49.2085 58.406 49.3561 58.145 49.6163C57.884 49.8765 57.736 50.2285 57.7327 50.5965C57.7295 50.9645 57.8714 51.319 58.1278 51.5837L86.279 79.6506C86.9238 80.2962 86.9238 81.2338 86.2593 81.9018L82.2361 86.0926ZM16.4796 8.89815L8.03344 0.477236C7.76946 0.214123 7.41147 0.0663147 7.0382 0.0663147C6.66493 0.0663147 6.30694 0.214123 6.04295 0.477236L0.412155 6.09118C0.148252 6.35437 0 6.71129 0 7.08344C0 7.45559 0.148252 7.81251 0.412155 8.0757L8.85835 16.4966C9.12269 16.7587 9.4802 16.9061 9.85302 16.9066C10.2258 16.9072 10.5838 16.7608 10.8488 16.4994L12.6676 14.6833L34.1941 36.1454C34.3238 36.2796 34.479 36.3867 34.6506 36.4605C34.8223 36.5343 35.0069 36.5733 35.1938 36.5752C35.3807 36.577 35.5661 36.5418 35.7392 36.4715C35.9123 36.4011 36.0696 36.2972 36.202 36.1656C36.3343 36.034 36.4391 35.8774 36.5101 35.7051C36.5811 35.5327 36.617 35.3479 36.6157 35.1616C36.6143 34.9752 36.5757 34.791 36.5022 34.6197C36.4287 34.4484 36.3217 34.2933 36.1874 34.1637L14.6581 12.6988L16.4768 10.8855C16.6081 10.7553 16.7123 10.6006 16.7835 10.4302C16.8547 10.2597 16.8915 10.077 16.8918 9.8924C16.8921 9.70779 16.8558 9.52494 16.7851 9.35433C16.7143 9.18372 16.6106 9.0287 16.4796 8.89815ZM9.85219 13.5212L3.39648 7.08484L7.03679 3.45543L13.4925 9.89181L9.85219 13.5212Z" fill="black"/>
</svg>
